<svg xmlns="http://www.w3.org/2000/svg" version="1.1" viewBox="-5.0 -10.0 110.0 135.0">
 <path d="m22.211 12h55.582c9.4688 0 17.207 7.7383 17.207 17.211v41.578c0 9.4727-7.7383 17.211-17.211 17.211h-55.578c-9.4727 0-17.211-7.7383-17.211-17.211v-41.578c0-9.4727 7.7383-17.211 17.211-17.211zm49.105 32.398c-1.5352 0-2.9336 0.62891-3.9531 1.6445l-0.007812-0.007813c-1.0117 1.0117-1.6406 2.4141-1.6406 3.9609 0 4.9727 6.0391 7.4805 9.5586 3.9609l-0.007813-0.007812c3.5664-3.5625 0.95312-9.5508-3.9492-9.5508zm17.684 22.883h-17.684c-15.219 0-23.141-18.551-12.207-29.484 3.1289-3.1289 7.4492-5.0742 12.207-5.0742h17.684c0-4.3906 0.29688-7.832-3.2969-11.426-2.0312-2.0352-4.832-3.2969-7.9141-3.2969h-55.578c-6.1602 0-11.211 5.0508-11.211 11.211v41.578c0 6.1602 5.0508 11.211 11.211 11.211h55.582c6.1562 0 11.207-5.0508 11.207-11.211zm0-28.562h-17.684c-9.8945 0-15.129 12.082-7.9648 19.242 2.0469 2.0469 4.8633 3.3164 7.9648 3.3164l17.684 0.003906z" fill-rule="evenodd"/>
<text x="0.0" y="117.5" font-size="5.0" font-weight="bold" font-family="Arbeit Regular, Helvetica, Arial-Unicode, Arial, Sans-serif" fill="#000000">Created by Arto Moro</text><text x="0.0" y="122.5" font-size="5.0" font-weight="bold" font-family="Arbeit Regular, Helvetica, Arial-Unicode, Arial, Sans-serif" fill="#000000">from Noun Project</text></svg>